<svg width="138" height="89" viewBox="0 0 138 89" fill="none" xmlns="http://www.w3.org/2000/svg">
<g filter="url(#filter0_d_1_82)">
<path d="M87.27 30.4C84.92 29.11 83.9 26.86 82.57 24.51C81.73 26.05 81.05 27.61 80.49 29.28L80.63 30.85C80.65 31.08 80.03 31.31 79.83 31.21C77.7 30.17 80.99 23.26 82.16 20.81L84.24 16.47C82.99 16.9 82.14 17.83 81.7 19.03C81.54 19.46 81.26 19.67 80.82 19.57C79.88 19.37 80.38 17.81 81.55 16.47C82.72 15.13 84.38 14.27 85.95 13.28C86.63 12.85 87.27 12.01 87.96 11.63C88.1 11.55 88.64 11.5 88.72 11.63L89.13 12.32L92.62 12.38C93.44 12.39 94.36 12.72 95.04 13.11C96.19 13.78 96.61 15.01 96.2 16.25C95.82 17.41 95.01 18.37 94.03 19.13C92.58 20.26 91.03 21.16 89.32 21.86L84.19 23.95C84.9 25.63 85.74 27.21 87.05 28.4C88.75 29.94 89.94 28.4 90.49 29.04C90.63 29.21 90.64 29.77 90.49 29.95C89.68 30.87 88.42 30.88 87.26 30.41L87.27 30.4ZM92.07 18.04C93.25 17.23 94.89 16.06 94.5 15.09C94.13 14.17 91.94 14.05 90.46 14.09C86.91 14.19 87.1 15.27 85.52 18.05C84.79 19.33 84.09 20.6 83.7 22.02C86.77 20.9 89.39 19.58 92.07 18.04Z" fill="#F16A00"/>
<path d="M46.04 29.04C46.14 27.64 46.62 26.51 47.14 25.23L43.95 27.17C42.33 28.16 40.11 28.41 39.65 27.01C38.41 23.21 44.04 17.7 46.39 18.84C46.87 19.07 47.1 19.6 47.14 20.1C47.66 19.07 49.4 19.02 50.67 18.74C51.65 17.26 53.81 13.2 54.73 13.45C54.97 13.52 55.24 14.08 55.08 14.34L52.57 18.47C53.77 18.5 54.69 18.45 55.71 18.69C56.15 18.8 56.3 19.65 56.06 20.05L53 20.13C52.43 20.15 51.49 20.32 51.1 20.71C49.94 22.4 49.24 24.2 48.37 26C48.03 26.7 48.01 27.13 48.18 27.89C48.35 28.65 47.53 29.64 46.84 29.88C46.4 30.03 46.01 29.49 46.04 29.03V29.04ZM45.06 24.96L48.36 22.83L49.43 20.83L48.14 21.15C47.97 21.19 47.52 21.18 47.41 21.04C47.3 20.9 47.24 20.62 47.16 20.3C46.82 21.21 46.23 22.04 45.44 22.69C44.16 23.74 42.69 24.85 41.38 24.04L40.87 25.21C40.78 25.42 40.95 25.89 41.1 26.04C41.77 26.7 43.84 25.76 45.06 24.97V24.96ZM44.45 20.69C43.96 20.99 43.26 21.63 42.97 22.22C45.18 21.51 45.15 20.26 44.45 20.69Z" fill="#F16A00"/>
<path d="M122.69 51.36C122.69 51.84 122.08 52.03 121.82 52.01C121.45 51.98 121.08 51.76 120.93 51.33L116.17 38.2L116.06 51.19C116.06 51.63 115.68 51.95 115.3 51.95C114.92 51.95 114.59 51.63 114.59 51.17L114.62 34.76C114.62 34.41 115.08 34.08 115.33 34.04C115.63 33.99 116.17 34.1 116.3 34.44L121.18 47.81L121.15 34.76C121.15 34.38 121.66 34.05 121.94 34.08C122.31 34.12 122.65 34.44 122.65 34.87L122.7 51.36H122.69Z" fill="#F16A00"/>
<path d="M18.89 51.36C18.89 51.84 18.28 52.03 18.02 52.01C17.66 51.98 17.28 51.76 17.13 51.33L12.37 38.2L12.26 51.19C12.26 51.63 11.88 51.95 11.5 51.95C11.12 51.95 10.79 51.63 10.79 51.17L10.82 34.76C10.82 34.41 11.27 34.08 11.53 34.04C11.83 33.99 12.37 34.1 12.49 34.44L17.37 47.81L17.34 34.76C17.34 34.38 17.85 34.05 18.13 34.08C18.5 34.12 18.84 34.44 18.84 34.87L18.89 51.36Z" fill="#F16A00"/>
<path d="M110.06 46.95C109.69 49.27 108.63 51.85 106.32 52.2C103.7 52.59 102.04 50.07 101.53 47.33C100.89 43.94 100.92 38.68 102.54 35.72C103.56 33.86 105.9 33.08 107.68 34.3C110.5 36.23 110.65 43.39 110.08 46.95H110.06ZM108.41 39.13C108.17 37.52 107.34 35.41 105.85 35.4C102.37 35.38 102.61 43.68 103.22 47.12C103.49 48.64 104.24 50.43 105.6 50.52C109.06 50.74 108.92 42.59 108.41 39.14V39.13Z" fill="#F16A00"/>
<path d="M31.67 34.66V48.25C31.67 49.42 31.27 50.54 30.49 51.33C29.07 52.76 25.81 52.43 24.76 50.63C24.33 49.9 24.13 48.98 24.13 48.09V34.76C24.13 34.28 24.59 33.91 24.93 33.91C25.47 33.91 25.8 34.27 25.8 34.85V47.99C25.8 48.49 25.92 49.04 26.06 49.46C26.35 50.32 27.09 50.66 27.94 50.66C29.1 50.66 29.93 49.87 29.93 48.63L29.95 34.74C29.95 34.3 30.34 33.96 30.67 33.92C31 33.88 31.66 34.11 31.66 34.67L31.67 34.66Z" fill="#F16A00"/>
<path d="M56.02 51.89L53.22 44.29L51.7 44.46V51.38C51.69 51.81 51.24 52.15 50.89 52.13C50.52 52.11 50.13 51.79 50.13 51.32V34.86C50.13 34.24 50.53 33.95 51.08 33.91C53.9 33.7 56.45 34.53 57.29 37.29C57.9 39.92 57.17 42.81 54.56 43.98L57.35 50.93C57.49 51.28 57.33 51.66 57.16 51.9C56.99 52.14 56.16 52.3 56.01 51.89H56.02ZM54.05 35.74C53.34 35.45 52.56 35.39 51.75 35.4L51.7 42.93C53.03 42.89 54.26 42.58 55.11 41.64C56.38 40.22 56.41 36.7 54.05 35.74Z" fill="#F16A00"/>
<path d="M97.58 33.11C97.51 33.3 97.03 33.4 96.89 33.3C96.73 33.19 96.45 32.77 96.49 32.55C96.97 30.24 97.94 28.19 98.8 25.88C97.16 26.9 95.05 28.78 93.74 27.93C92.43 27.08 93.54 23.74 94.75 21.97C95.08 21.49 95.59 21.07 96.2 21.04C96.39 21.03 96.72 21.35 96.73 21.53C96.74 21.71 96.65 22.09 96.52 22.27C95.67 23.46 94.19 25.99 94.85 26.28C95.77 26.68 99.26 24.03 100.32 22.63C100.97 21.22 101.64 19.98 102.54 18.7C102.76 18.61 103.15 18.6 103.31 18.74C103.89 19.26 102.97 19.93 102.83 20.7L104.8 19.08C105.07 18.86 105.82 18.78 106.11 18.94C106.65 19.23 106.95 19.9 106.94 20.5C106.92 22.21 106.02 23.68 104.83 24.85C103.64 26.02 102.27 26.77 100.99 25.79C100.14 26.91 99.38 28.1 98.9 29.43L97.58 33.11ZM105.19 22.27C105.52 21.76 105.7 21.25 105.66 20.59C105.04 20.63 104.62 20.89 104.2 21.3C103.32 22.17 102.46 23.09 101.84 24.18C102.67 25.01 104.39 23.49 105.19 22.27Z" fill="#F16A00"/>
<path d="M65.02 26.23C63.5 27.22 61.47 28.76 60.39 27.88C58.71 26.51 61.41 20.46 63.06 21.07C63.28 21.15 63.56 21.66 63.43 21.88L61.69 24.85C61.43 25.28 61.34 25.91 61.61 26.36C63.13 26.14 65.52 24.39 66.38 23.28C66.95 22.55 67.32 21.65 67.72 20.84C66.99 20.99 66.56 21.18 65.97 21.14C65.62 21.11 65.5 20.49 65.55 20.15C65.59 19.86 65.91 19.45 66.33 19.35L69.02 18.72C69.96 17.26 72.18 13.17 73.05 13.47C73.28 13.55 73.57 14.09 73.42 14.33L70.9 18.46C72.16 18.52 73.12 18.4 74.12 18.73C74.54 18.87 74.65 19.8 74.34 20.06L71.45 20.11C70.8 20.12 70.13 20.33 69.5 20.54C68.33 22.35 67.52 24.23 66.63 26.18C66.42 26.65 66.3 27.03 66.47 27.55C66.8 28.58 65.67 29.94 64.92 29.89C64.6 29.87 64.27 29.18 64.35 28.86L65.01 26.22L65.02 26.23Z" fill="#F16A00"/>
<path d="M38.43 25.09C38.81 25.32 38.95 26.04 38.83 26.48C38.73 26.83 38.28 27.12 37.82 27.3C34.75 28.49 31.7 29.51 28.55 30.51C28 30.68 27.33 30.51 27.02 30.05C26.57 29.37 26.53 28.55 26.72 27.77C27.84 23.33 31.1 17.08 33.59 13.11C34.06 12.36 34.59 11.69 35.24 11.12C35.54 11.23 35.86 11.47 35.91 11.69C35.97 11.96 35.9 12.46 35.75 12.73L30.34 22.46C29.6 23.79 28.09 27.38 28.43 28.17C28.51 28.35 29.04 28.39 29.25 28.31L35.1 26.03C36.17 25.61 37.16 25.33 38.42 25.08L38.43 25.09Z" fill="#F16A00"/>
<path d="M69.63 51.95H63.99C63.63 51.96 63.28 51.68 63.22 51.36C63.16 51.04 63.47 50.54 63.84 50.54L65.88 50.51L65.94 35.38L63.84 35.36C63.53 35.36 63.2 34.91 63.19 34.64C63.19 34.25 63.55 33.93 63.98 33.93H69.56C69.87 33.93 70.23 34.27 70.28 34.51C70.33 34.78 70.02 35.34 69.71 35.34L67.55 35.38L67.52 50.48L69.7 50.56C69.95 50.56 70.28 51.03 70.28 51.26C70.28 51.49 69.95 51.95 69.61 51.95H69.63Z" fill="#F16A00"/>
<path d="M95.58 51.95H89.94C89.58 51.96 89.23 51.68 89.17 51.36C89.11 51.04 89.42 50.54 89.79 50.54L91.83 50.51L91.89 35.38L89.79 35.36C89.48 35.36 89.15 34.91 89.14 34.64C89.14 34.25 89.5 33.93 89.93 33.93H95.51C95.82 33.93 96.18 34.27 96.23 34.51C96.28 34.78 95.97 35.34 95.66 35.34L93.5 35.38L93.47 50.48L95.65 50.56C95.9 50.56 96.23 51.03 96.23 51.26C96.23 51.49 95.9 51.95 95.56 51.95H95.58Z" fill="#F16A00"/>
<path d="M41.74 51.09C41.74 51.69 41.33 52 40.91 52.03C40.46 52.06 39.95 51.72 39.95 51.16V35.69L37.77 35.67C37.26 35.67 36.82 35.38 36.77 34.88C36.72 34.44 37.1 33.88 37.65 33.88L43.91 33.9C44.47 33.9 44.84 34.27 44.87 34.78C44.89 35.21 44.52 35.69 44 35.7L41.74 35.74V51.09Z" fill="#F16A00"/>
<path d="M80.73 51.09C80.73 51.69 80.32 52 79.9 52.03C79.45 52.06 78.94 51.72 78.94 51.16V35.69L76.76 35.67C76.25 35.67 75.81 35.38 75.76 34.88C75.71 34.44 76.09 33.88 76.64 33.88L82.9 33.9C83.46 33.9 83.83 34.27 83.86 34.78C83.88 35.21 83.51 35.69 82.99 35.7L80.73 35.74V51.09Z" fill="#F16A00"/>
<path d="M66.33 16.29C65.49 17.56 64.15 18.78 63.93 17.91C63.68 16.94 64.53 15.95 65.5 15.31C65.75 15.14 66.17 15.22 66.34 15.43C66.51 15.64 66.51 16.02 66.34 16.29H66.33Z" fill="#F16A00"/>
<path d="M97.9 18.13C97.77 18.24 97.38 18.08 97.29 17.96C96.62 17.05 98.85 14.56 99.63 15.42C100.19 16.04 98.93 17.31 97.9 18.13Z" fill="#F16A00"/>
</g>
<g filter="url(#filter1_d_1_82)">
<path d="M108.8 65.41C108.48 65.55 108.02 65.08 108.02 64.78V63.51L106.47 65.05C106.24 65.28 105.78 65.43 105.57 65.28C105.29 65.08 105.11 64.59 105.1 64.23C104.17 64.8 103.07 65.61 102.34 65.21C101.37 64.69 102.96 61.16 103.94 61.74C104.06 61.81 104.03 62.1 103.94 62.25L102.96 63.87C102.93 63.92 102.96 64.23 102.97 64.28C103.05 64.63 104.79 63.72 105.64 62.87L107.31 61.21C107.7 60.82 108.3 60.77 108.9 60.91L111.32 57.51C111.41 57.39 111.71 57.26 111.84 57.28C112 57.3 112.1 57.78 112.01 57.92C110.9 59.53 109.87 61.07 109.08 62.85C108.85 63.36 108.77 63.84 108.96 64.4C109.72 64.18 110.21 63.78 110.77 63.36C111.28 62.97 111.53 62.63 111.77 62.04C112.18 61.04 113.86 60.13 114.02 60.56C114.07 60.7 114.02 61.1 113.89 61.2L112.48 62.36C112.36 62.45 112.38 62.93 112.48 63.03C112.58 63.13 112.94 63.22 113.09 63.17L114.57 62.66L114.89 62.59C115.26 62.51 114.95 63.36 113.13 63.87C112.95 65.48 111.57 66.62 109.93 66.32C109.79 66.19 109.51 65.89 109.53 65.73C109.56 65.54 109.74 65.25 109.91 64.93L108.79 65.41H108.8ZM108.1 61.79C107.08 62.25 106.4 62.98 105.96 64.05C106.59 63.95 107.6 62.65 108.1 61.79ZM112.16 64.48C111.44 64.59 111.04 64.93 110.68 65.42C111.35 65.36 111.85 65.02 112.16 64.48Z" fill="#00FFFB"/>
<path d="M55.56 63.05C54.33 64.02 53.06 64.76 51.61 65.29C51.22 65.29 50.77 65.21 50.53 64.97C50.31 64.74 50.28 64.31 50.2 63.85L48.51 64.87C48.32 64.98 47.84 65.04 47.64 64.96C47.42 64.87 47.12 64.38 47.19 64.11L47.6 62.32C47.64 62.16 47.58 61.78 47.47 61.67C46.96 61.17 45.42 62.69 44.59 63.71L43.54 65.01C43.44 65.12 42.97 64.91 42.98 64.77L43.01 64.11C43.83 62.52 44.77 61.06 45.8 59.59C46.57 58.63 47.7 56.98 48.23 57.43C48.35 57.53 48.4 57.9 48.29 58.05L45.9 61.08C46.79 60.9 47.53 60.49 48.31 60.87C48.9 61.15 48.82 61.94 48.68 62.45L48.24 64.19C49.22 63.72 49.96 63.25 50.66 62.59C51.51 61.79 52.13 60.79 53.37 60.49C53.6 60.43 54.1 60.49 54.27 60.63C55.1 61.33 53.46 63.04 51.86 63.33C51.69 63.36 51.27 63.2 51.2 63.35C51.11 63.55 51.03 63.96 51.09 64.14C51.15 64.32 51.59 64.34 51.88 64.36C53.02 63.87 54.04 63.29 55.11 62.65L55.39 62.61C55.45 62.61 55.48 62.77 55.54 63.03L55.56 63.05Z" fill="#00FFFB"/>
<path d="M22.27 64.94C21.43 66.35 21.76 67.33 21.1 67.26C20.06 67.15 21.64 64.43 22.25 63.02C22.08 62.81 21.86 62.55 21.79 62.39C21.7 62.21 22.1 61.85 22.29 61.78L23.24 61.41L25.37 58.31L23.75 58.35C23.63 58.35 23.54 57.93 23.62 57.85C24.59 56.92 27.3 56.82 29.11 56.72L30.99 56.76C31.44 56.76 31.73 57.1 31.69 57.51C31.57 58.86 28.67 57.15 26.98 58.22C25.92 58.89 25.4 60.12 24.62 61.23L26.63 61.29C26.9 61.29 27.25 61.5 27.27 61.76C27.29 61.98 26.96 62.33 26.74 62.34L24.73 62.47C24.42 62.49 23.72 62.52 23.57 62.77L22.26 64.95L22.27 64.94Z" fill="#00FFFB"/>
<path d="M59.53 64.94C58.69 66.35 59.02 67.33 58.36 67.26C58.18 67.24 57.88 66.76 57.96 66.59L59.51 63.02C59.35 62.81 59.12 62.55 59.05 62.39C58.96 62.21 59.36 61.85 59.55 61.78L60.5 61.41L62.63 58.31L61.01 58.35C60.89 58.35 60.8 57.93 60.88 57.85C61.86 56.92 64.56 56.82 66.37 56.72L68.25 56.76C68.7 56.76 68.99 57.1 68.95 57.51C68.83 58.86 65.93 57.16 64.24 58.22C63.18 58.89 62.66 60.12 61.88 61.23L63.89 61.29C64.16 61.29 64.51 61.49 64.53 61.76C64.55 61.98 64.22 62.33 64 62.34L62 62.47C61.69 62.49 60.99 62.52 60.83 62.77L59.52 64.95L59.53 64.94Z" fill="#00FFFB"/>
<path d="M78.43 64.94C77.59 66.35 77.92 67.33 77.26 67.26C77.08 67.24 76.78 66.76 76.86 66.59L78.41 63.02C78.25 62.81 78.02 62.55 77.95 62.39C77.86 62.21 78.26 61.85 78.45 61.78L79.41 61.41L81.54 58.31L79.92 58.35C79.8 58.35 79.71 57.93 79.79 57.85C80.77 56.92 83.47 56.83 85.28 56.72L87.16 56.76C87.61 56.76 87.9 57.1 87.86 57.51C87.74 58.86 84.84 57.15 83.15 58.22C82.09 58.89 81.57 60.12 80.79 61.23L82.8 61.29C83.07 61.29 83.42 61.49 83.44 61.76C83.46 61.98 83.13 62.33 82.91 62.34L80.91 62.47C80.6 62.49 79.9 62.52 79.74 62.77L78.43 64.95V64.94Z" fill="#00FFFB"/>
<path d="M101.46 65.04C100.97 65.61 100.04 65.72 99.39 65.26C97.82 64.18 97.61 62.43 96.59 62.46L95.13 65.82C94.91 66.32 94.87 66.94 94.83 67.5C94.69 67.6 94.37 67.64 94.26 67.54C93.61 66.96 94.74 64.54 95.27 63.14L95.15 62.29C95.54 61.99 95.88 61.69 96.08 61.31L97.65 58.47C98.17 57.53 98.98 56.32 99.59 56.65C99.69 56.7 99.64 56.98 99.59 57.11L97.68 60.29C97.67 60.42 97.65 60.85 97.77 60.84L98.33 60.79C100.08 59.86 101.62 58.74 103.18 57.5L103.7 57.43C104.07 57.38 103.69 58.54 102.27 59.38L97.89 62C98.19 62.78 98.69 63.45 99.24 64.08C100.27 65.28 100.89 64.51 101.41 64.52C101.51 64.52 101.53 64.93 101.44 65.03L101.46 65.04Z" fill="#00FFFB"/>
<path d="M65.25 65.22C64.45 65.3 64.23 64.32 64.47 63.76C65.35 61.74 67.71 59.94 68.1 61.03L68.5 62.14L67.92 63.47C67.88 63.56 67.84 63.82 67.83 63.91C67.82 64.03 68.25 63.99 68.36 63.92L69.63 63.1C70.19 62.74 70.59 62.2 70.81 61.6C70.41 61.66 70 61.72 69.77 61.68C69.65 61.66 69.54 61.25 69.62 61.16C69.7 61.07 69.94 60.88 70.07 60.84L71.62 60.42L73.41 57.93C73.47 57.84 73.82 57.82 73.91 57.83C74 57.84 74.03 58.2 73.98 58.28L72.67 60.3L74.09 60.41C74.21 60.41 74.45 60.5 74.53 60.58C74.62 60.67 74.63 60.98 74.62 61.17C73.65 61.18 72.69 61.17 71.8 61.48L70.06 64.75C70.45 65.42 69.85 66.23 69.2 66.23C68.79 65.61 69.17 64.87 69.43 64.19L68.18 64.95C68 65.06 67.48 65.1 67.33 64.99C67.16 64.86 67.01 64.55 66.85 64.22C66.43 64.5 65.84 65.17 65.24 65.23L65.25 65.22ZM67.67 61.78C67.33 61.66 67.15 61.79 66.95 61.98C66.28 62.6 65.54 63.17 65.3 64.17C66.42 63.79 67.13 62.86 67.67 61.78Z" fill="#00FFFB"/>
<path d="M37 62.66C37.95 62.72 34.14 66.11 33.02 65.09C32.68 64.78 32.91 63.9 33.02 63.43C32.61 63.72 32.2 63.94 31.69 63.8L31.38 62.79L30.28 62.81C29.79 64.24 28.56 65.85 27.68 65.36C26.24 64.55 28.84 59.96 30.06 60.83C30.31 61.01 30.41 61.39 30.48 61.92C30.75 61.99 31.37 61.99 31.73 61.91C31.99 61.29 32.42 60.6 33.13 60.64C33.34 60.65 33.5 61.17 33.43 61.35C33.15 62.04 32.12 62.09 32.37 63.08C33.4 62.46 33.74 61.39 34.58 61.15C34.7 61.12 35.04 61.32 35.08 61.43C35.2 61.87 34.05 62.93 33.66 64.19C34.19 64.72 35.69 63.53 36.61 62.78C36.69 62.71 36.91 62.66 37 62.66ZM28.64 64.27L29.52 62.92L29.14 62.04C28.55 62.8 27.91 63.68 28.11 64.47C28.14 64.57 28.57 64.37 28.64 64.27Z" fill="#00FFFB"/>
<path d="M83.74 65.19C83.16 64.72 83.46 63.93 83.65 63.38C84.19 61.81 85.29 61.41 85.38 61.82C85.41 61.92 85.38 62.16 85.31 62.26L84.33 63.88C84.3 63.93 84.33 64.24 84.34 64.29C84.45 64.69 86.18 63.65 87.11 62.83C87.42 62.55 87.68 61.96 87.86 61.6C87.47 61.64 87.06 61.7 86.82 61.67C86.7 61.65 86.59 61.24 86.68 61.15C86.77 61.06 87 60.87 87.11 60.84L88.67 60.42L90.46 57.92C90.53 57.83 90.9 57.77 90.96 57.83C91.04 57.92 91.06 58.24 90.98 58.36L89.71 60.3L91.15 60.4C91.26 60.4 91.5 60.49 91.58 60.57C91.67 60.66 91.68 60.97 91.67 61.16C90.7 61.17 89.74 61.15 88.85 61.47L87.12 64.73C87.45 65.45 86.98 66.14 86.22 66.25C85.98 65.62 86.12 65.12 86.38 64.34L85.16 65.03C84.85 65.2 84.09 65.46 83.75 65.19H83.74Z" fill="#00FFFB"/>
<path d="M39.6 64.69C39.91 65.45 39.47 66.15 38.7 66.24C38.16 64.94 39.65 63.08 40.37 61.59L39.39 61.71C39.27 61.72 39.08 61.35 39.13 61.24C39.2 61.11 39.43 60.88 39.59 60.84L41.16 60.41L42.94 57.92C43 57.83 43.35 57.81 43.43 57.82C43.51 57.83 43.54 58.19 43.48 58.29L42.19 60.32L43.7 60.42C43.81 60.42 44.04 60.57 44.11 60.65C44.19 60.75 44.12 61.13 44.02 61.18C43.19 61.18 42.08 61.18 41.32 61.48C40.64 62.54 40.17 63.54 39.59 64.7L39.6 64.69Z" fill="#00FFFB"/>
<path d="M87.13 58.98C87.18 59.04 86.51 60.16 85.76 60.23C85.49 59.38 86.21 58.85 86.85 58.66L87.13 58.98Z" fill="#00FFFB"/>
<path d="M105.76 58.98C105.81 59.04 105.14 60.16 104.39 60.23C104.12 59.38 104.84 58.85 105.48 58.66L105.76 58.98Z" fill="#00FFFB"/>
</g>
<defs>
<filter id="filter0_d_1_82" x="0.79" y="1.12" width="131.91" height="61.12" filterUnits="userSpaceOnUse" color-interpolation-filters="sRGB">
<feFlood flood-opacity="0" result="BackgroundImageFix"/>
<feColorMatrix in="SourceAlpha" type="matrix" values="0 0 0 0 0 0 0 0 0 0 0 0 0 0 0 0 0 0 127 0" result="hardAlpha"/>
<feOffset/>
<feGaussianBlur stdDeviation="2"/>
<feColorMatrix type="matrix" values="0 0 0 0 0.945098 0 0 0 0 0.415686 0 0 0 0 0 0 0 0 1 0"/>
<feBlend mode="normal" in2="BackgroundImageFix" result="effect1_dropShadow_1_82"/>
<feBlend mode="normal" in="SourceGraphic" in2="effect1_dropShadow_1_82" result="shape"/>
</filter>
<filter id="filter1_d_1_82" x="6.75426" y="42.5945" width="122.273" height="39.0034" filterUnits="userSpaceOnUse" color-interpolation-filters="sRGB">
<feFlood flood-opacity="0" result="BackgroundImageFix"/>
<feColorMatrix in="SourceAlpha" type="matrix" values="0 0 0 0 0 0 0 0 0 0 0 0 0 0 0 0 0 0 127 0" result="hardAlpha"/>
<feOffset/>
<feGaussianBlur stdDeviation="3"/>
<feColorMatrix type="matrix" values="0 0 0 0 0 0 0 0 0 1 0 0 0 0 0.984314 0 0 0 1 0"/>
<feBlend mode="normal" in2="BackgroundImageFix" result="effect1_dropShadow_1_82"/>
<feBlend mode="normal" in="SourceGraphic" in2="effect1_dropShadow_1_82" result="shape"/>
</filter>
</defs>
</svg>
