<svg width="117" height="36" viewBox="0 0 117 36" fill="none" xmlns="http://www.w3.org/2000/svg">
<path d="M12.768 22.048C13.3013 22.9653 13.568 23.8507 13.568 24.704C13.568 24.896 13.5467 25.0667 13.504 25.216C13.4827 25.3867 13.4507 25.5573 13.408 25.728C13.0453 25.6853 12.6613 25.6533 12.256 25.632C11.872 25.6107 11.4667 25.6 11.04 25.6C10.528 25.6 10.0053 25.6107 9.47199 25.632C8.95999 25.6747 8.38399 25.728 7.74399 25.792C7.10399 25.856 6.38932 25.9413 5.59999 26.048C4.81066 26.1547 3.89332 26.2933 2.84799 26.464C2.35732 26.2933 1.86666 25.952 1.37599 25.44C0.885322 24.9493 0.426655 24.352 -1.14441e-05 23.648C0.213322 23.1787 0.479989 22.6027 0.799989 21.92C1.11999 21.216 1.49332 20.3733 1.91999 19.392C2.34666 18.3893 2.81599 17.2267 3.32799 15.904C3.86132 14.56 4.42666 13.0133 5.02399 11.264C5.40799 10.112 5.73866 9.09868 6.01599 8.22401C6.29332 7.34934 6.53866 6.50668 6.75199 5.69601C6.98666 4.86401 7.21066 4.00001 7.42399 3.10401C7.63732 2.20801 7.87199 1.17334 8.12799 7.62939e-06C8.98132 0.170675 9.71732 0.490675 10.336 0.960009C10.976 1.40801 11.584 2.05867 12.16 2.91201C11.9893 3.18934 11.7653 3.63734 11.488 4.25601C11.2107 4.87467 10.88 5.63201 10.496 6.52801C10.1333 7.40267 9.72799 8.40534 9.27999 9.53601C8.83199 10.6453 8.36266 11.84 7.87199 13.12C7.40266 14.3787 6.94399 15.5627 6.49599 16.672C6.04799 17.7813 5.64266 18.784 5.27999 19.68C4.93866 20.576 4.66132 21.344 4.44799 21.984C4.23466 22.624 4.12799 23.104 4.12799 23.424C4.46932 23.4027 4.77866 23.3813 5.05599 23.36C5.33332 23.3387 5.62132 23.3067 5.91999 23.264C6.21866 23.2 6.53866 23.136 6.87999 23.072C7.24266 22.9867 7.66932 22.88 8.15999 22.752C8.58666 22.6453 8.98132 22.56 9.34399 22.496C9.70666 22.4107 10.0587 22.3467 10.4 22.304C10.7627 22.24 11.1253 22.1973 11.488 22.176C11.872 22.1333 12.2987 22.0907 12.768 22.048ZM26.7545 10.624C26.6692 11.9467 26.4345 13.088 26.0505 14.048C25.6665 14.9867 25.1118 15.8187 24.3865 16.544C23.6825 17.248 22.8185 17.888 21.7945 18.464C20.7705 19.04 19.5758 19.5947 18.2105 20.128C18.2105 20.256 18.1998 20.3947 18.1785 20.544C18.1785 20.672 18.1785 20.8107 18.1785 20.96C18.1785 21.2373 18.1998 21.5253 18.2425 21.824C18.2852 22.1227 18.3598 22.4 18.4665 22.656C18.5732 22.912 18.7225 23.1253 18.9145 23.296C19.1065 23.4453 19.3518 23.52 19.6505 23.52C20.2265 23.52 20.7918 23.392 21.3465 23.136C21.9012 22.88 22.4238 22.5707 22.9145 22.208C23.4265 21.824 23.8958 21.4187 24.3225 20.992C24.7705 20.544 25.1652 20.1387 25.5065 19.776C25.7198 19.968 25.9012 20.1493 26.0505 20.32C25.0905 21.6 24.0345 22.6667 22.8825 23.52C21.7518 24.352 20.6745 24.8853 19.6505 25.12C18.1785 24.9493 17.0265 24.416 16.1945 23.52C15.3838 22.6027 14.9785 21.504 14.9785 20.224C14.9785 19.3493 15.0958 18.464 15.3305 17.568C15.5865 16.6507 15.9278 15.776 16.3545 14.944C16.8025 14.0907 17.3145 13.2907 17.8905 12.544C18.4878 11.7973 19.1172 11.1467 19.7785 10.592C20.4612 10.0373 21.1545 9.60001 21.8585 9.28001C22.5838 8.96001 23.2985 8.80001 24.0025 8.80001C24.9838 8.92801 25.9012 9.53601 26.7545 10.624ZM24.5465 11.68C23.9705 11.7653 23.3732 12 22.7545 12.384C22.1358 12.768 21.5492 13.28 20.9945 13.92C20.4612 14.56 19.9705 15.3067 19.5225 16.16C19.0745 17.0133 18.7225 17.9307 18.4665 18.912C20.1732 18.0587 21.5918 17.0133 22.7225 15.776C23.8532 14.5173 24.4612 13.152 24.5465 11.68ZM29.9052 11.616C29.7986 11.488 29.7026 11.2213 29.6172 10.816C29.5319 10.3893 29.4892 10.0267 29.4892 9.72801C30.0439 9.77068 30.5772 9.81334 31.0892 9.85601C31.6012 9.87734 32.0706 9.89868 32.4972 9.92001C32.8172 9.28001 33.1586 8.65068 33.5212 8.03201C33.9052 7.39201 34.2679 6.81601 34.6092 6.30401C34.9719 5.77068 35.3026 5.32268 35.6012 4.96001C35.9212 4.59734 36.1666 4.36267 36.3372 4.25601C36.5506 4.25601 36.8172 4.29867 37.1372 4.38401C37.4786 4.44801 37.8199 4.54401 38.1612 4.67201C38.5026 4.77868 38.8119 4.89601 39.0892 5.02401C39.3666 5.15201 39.5586 5.28001 39.6652 5.40801C39.0252 6.21867 38.4706 6.97601 38.0012 7.68001C37.5532 8.36267 37.0626 9.15201 36.5292 10.048C36.9559 10.048 37.3826 10.0373 37.8092 10.016C38.2572 9.99468 38.7052 9.96268 39.1532 9.92001C39.2599 10.0267 39.3452 10.1653 39.4092 10.336C39.4732 10.4853 39.5052 10.6453 39.5052 10.816C38.4599 11.2 37.1906 11.4133 35.6972 11.456C35.1639 12.48 34.6839 13.504 34.2572 14.528C33.8519 15.5307 33.4999 16.5013 33.2012 17.44C32.9239 18.3787 32.6999 19.264 32.5292 20.096C32.3799 20.928 32.3052 21.6747 32.3052 22.336C32.3052 23.2747 32.6572 23.7973 33.3612 23.904C34.0012 23.8187 34.6092 23.6587 35.1852 23.424C35.7612 23.1893 36.2732 22.8907 36.7212 22.528C36.8492 22.72 36.9239 22.88 36.9452 23.008C36.8172 23.2 36.5932 23.424 36.2732 23.68C35.9746 23.936 35.6439 24.1813 35.2812 24.416C34.9186 24.672 34.5666 24.8853 34.2252 25.056C33.8839 25.2267 33.6279 25.3227 33.4572 25.344C32.9239 25.3227 32.3906 25.2053 31.8572 24.992C31.3239 24.7787 30.8332 24.512 30.3852 24.192C29.9586 23.872 29.6066 23.52 29.3292 23.136C29.0519 22.7307 28.9132 22.336 28.9132 21.952C28.9132 21.44 28.9772 20.8 29.1052 20.032C29.2546 19.2427 29.4572 18.3893 29.7132 17.472C29.9692 16.5547 30.2679 15.5947 30.6092 14.592C30.9506 13.5893 31.3239 12.5973 31.7292 11.616H29.9052ZM46.9242 21.728C46.9242 21.536 46.9349 21.3013 46.9562 21.024C46.9989 20.7253 47.0629 20.3413 47.1482 19.872C47.2336 19.3813 47.3402 18.7947 47.4682 18.112C47.6176 17.4293 47.7989 16.608 48.0122 15.648C48.0549 15.4347 48.1509 15.0933 48.3002 14.624C48.4496 14.1547 48.6416 13.664 48.8762 13.152C49.1322 12.6187 49.4309 12.1067 49.7722 11.616C50.1349 11.1253 50.5616 10.7627 51.0522 10.528C51.4149 10.6133 51.8949 10.8373 52.4922 11.2C53.0896 11.5413 53.6016 12.0213 54.0282 12.64C53.5376 13.1947 53.1216 13.7493 52.7802 14.304C52.4602 14.8587 52.1616 15.4347 51.8842 16.032C51.6282 16.6293 51.3829 17.248 51.1482 17.888C50.9349 18.528 50.6896 19.2 50.4122 19.904C50.1776 20.5013 49.9642 21.12 49.7722 21.76C49.5802 22.3787 49.4736 22.9227 49.4522 23.392C49.4522 23.776 49.4416 24.0427 49.4202 24.192C49.4202 24.3627 49.3669 24.448 49.2602 24.448C49.1749 24.448 49.0042 24.3947 48.7482 24.288C48.4922 24.1813 48.2256 24.0213 47.9482 23.808C47.6922 23.5733 47.4576 23.2853 47.2442 22.944C47.0309 22.6027 46.9242 22.1973 46.9242 21.728ZM53.0362 7.84001C53.0362 7.71201 53.0682 7.52001 53.1322 7.26401C53.0256 7.15734 52.9296 6.99734 52.8442 6.78401C52.7802 6.57067 52.7482 6.37867 52.7482 6.20801C52.7482 6.01601 52.7696 5.76001 52.8122 5.44001C52.8762 5.09868 52.9509 4.73601 53.0362 4.35201C53.1216 3.96801 53.2282 3.57334 53.3562 3.16801C53.4842 2.74134 53.6122 2.35734 53.7402 2.01601C53.9962 2.01601 54.3056 2.09067 54.6682 2.24001C55.0522 2.36801 55.4362 2.54934 55.8202 2.78401C56.2042 2.99734 56.5562 3.24267 56.8762 3.52001C57.1962 3.77601 57.4416 4.02134 57.6122 4.25601C57.3776 4.49067 57.0682 4.82134 56.6842 5.24801C56.3002 5.65334 55.9269 6.09068 55.5642 6.56001C55.2016 7.00801 54.8709 7.43467 54.5722 7.84001C54.2736 8.24534 54.0816 8.53334 53.9962 8.70401C53.7402 8.66134 53.5162 8.55468 53.3242 8.38401C53.1322 8.19201 53.0362 8.01067 53.0362 7.84001ZM56.124 11.616C56.0173 11.488 55.9213 11.2213 55.836 10.816C55.7507 10.3893 55.708 10.0267 55.708 9.72801C56.2627 9.77068 56.796 9.81334 57.308 9.85601C57.82 9.87734 58.2893 9.89868 58.716 9.92001C59.036 9.28001 59.3773 8.65068 59.74 8.03201C60.124 7.39201 60.4867 6.81601 60.828 6.30401C61.1907 5.77068 61.5213 5.32268 61.82 4.96001C62.14 4.59734 62.3853 4.36267 62.556 4.25601C62.7693 4.25601 63.036 4.29867 63.356 4.38401C63.6973 4.44801 64.0387 4.54401 64.38 4.67201C64.7213 4.77868 65.0307 4.89601 65.308 5.02401C65.5853 5.15201 65.7773 5.28001 65.884 5.40801C65.244 6.21867 64.6893 6.97601 64.22 7.68001C63.772 8.36267 63.2813 9.15201 62.748 10.048C63.1747 10.048 63.6013 10.0373 64.028 10.016C64.476 9.99468 64.924 9.96268 65.372 9.92001C65.4787 10.0267 65.564 10.1653 65.628 10.336C65.692 10.4853 65.724 10.6453 65.724 10.816C64.6787 11.2 63.4093 11.4133 61.916 11.456C61.3827 12.48 60.9027 13.504 60.476 14.528C60.0707 15.5307 59.7187 16.5013 59.42 17.44C59.1427 18.3787 58.9187 19.264 58.748 20.096C58.5987 20.928 58.524 21.6747 58.524 22.336C58.524 23.2747 58.876 23.7973 59.58 23.904C60.22 23.8187 60.828 23.6587 61.404 23.424C61.98 23.1893 62.492 22.8907 62.94 22.528C63.068 22.72 63.1427 22.88 63.164 23.008C63.036 23.2 62.812 23.424 62.492 23.68C62.1933 23.936 61.8627 24.1813 61.5 24.416C61.1373 24.672 60.7853 24.8853 60.444 25.056C60.1027 25.2267 59.8467 25.3227 59.676 25.344C59.1427 25.3227 58.6093 25.2053 58.076 24.992C57.5427 24.7787 57.052 24.512 56.604 24.192C56.1773 23.872 55.8253 23.52 55.548 23.136C55.2707 22.7307 55.132 22.336 55.132 21.952C55.132 21.44 55.196 20.8 55.324 20.032C55.4733 19.2427 55.676 18.3893 55.932 17.472C56.188 16.5547 56.4867 15.5947 56.828 14.592C57.1693 13.5893 57.5427 12.5973 57.948 11.616H56.124ZM94.999 6.24001C94.999 7.26401 94.7643 8.23468 94.295 9.15201C93.847 10.048 93.2177 10.8587 92.407 11.584C91.5963 12.288 90.647 12.8853 89.559 13.376C88.471 13.8667 87.287 14.1973 86.007 14.368C86.327 15.328 86.711 16.32 87.159 17.344C87.6283 18.3467 88.1297 19.3173 88.663 20.256C89.1963 21.1947 89.751 22.0587 90.327 22.848C90.903 23.6373 91.4683 24.288 92.023 24.8C91.9163 25.0133 91.7563 25.2267 91.543 25.44C91.351 25.6533 91.1163 25.8453 90.839 26.016C90.583 26.208 90.3057 26.3573 90.007 26.464C89.7297 26.592 89.463 26.656 89.207 26.656C88.7377 26.656 88.2897 26.432 87.863 25.984C87.4363 25.536 86.999 24.832 86.551 23.872C86.1243 22.8907 85.6657 21.632 85.175 20.096C84.7057 18.5387 84.183 16.672 83.607 14.496C83.3723 14.496 83.1377 14.496 82.903 14.496C82.6683 14.496 82.487 14.4747 82.359 14.432C82.2097 14.3467 82.0497 14.1973 81.879 13.984C81.303 15.2213 80.791 16.384 80.343 17.472C79.895 18.56 79.4897 19.616 79.127 20.64C78.7857 21.6427 78.4763 22.624 78.199 23.584C77.943 24.5227 77.719 25.4827 77.527 26.464C76.8017 26.2933 76.1723 25.984 75.639 25.536C75.1057 25.088 74.6043 24.4587 74.135 23.648C74.2203 23.456 74.3057 23.2747 74.391 23.104C74.4977 22.912 74.6257 22.656 74.775 22.336C74.9243 21.9947 75.1057 21.568 75.319 21.056C75.5537 20.544 75.8523 19.8613 76.215 19.008C76.599 18.1547 77.047 17.1093 77.559 15.872C78.0923 14.6347 78.7323 13.1307 79.479 11.36C79.8203 10.5707 80.1083 9.87734 80.343 9.28001C80.599 8.68268 80.823 8.11734 81.015 7.58401C81.207 7.02934 81.3777 6.48534 81.527 5.95201C81.6977 5.39734 81.8683 4.76801 82.039 4.06401C81.0577 4.40534 80.1403 4.78934 79.287 5.21601C78.455 5.62134 77.7617 6.05868 77.207 6.52801C77.015 6.40001 76.8123 6.20801 76.599 5.95201C76.407 5.69601 76.2257 5.41868 76.055 5.12001C75.8843 4.80001 75.735 4.48001 75.607 4.16001C75.479 3.84001 75.4043 3.55201 75.383 3.29601C76.023 2.86934 76.8017 2.47467 77.719 2.11201C78.6577 1.74934 79.6497 1.44001 80.695 1.18401C81.7403 0.906674 82.807 0.693341 83.895 0.544008C84.983 0.394674 85.9963 0.320007 86.935 0.320007C89.495 0.320007 91.479 0.853341 92.887 1.92001C94.295 2.96534 94.999 4.40534 94.999 6.24001ZM87.191 3.55201C87.0417 3.74401 86.807 4.12801 86.487 4.70401C86.167 5.28001 85.7937 5.97334 85.367 6.78401C84.9617 7.57334 84.5243 8.43734 84.055 9.37601C83.607 10.3147 83.1697 11.2427 82.743 12.16C84.343 12.16 85.815 12.0107 87.159 11.712C88.503 11.4133 89.6657 10.9973 90.647 10.464C91.6283 9.90934 92.3857 9.26934 92.919 8.54401C93.4737 7.79734 93.751 6.97601 93.751 6.08001C93.751 5.01334 93.367 4.20268 92.599 3.64801C91.831 3.07201 90.647 2.78401 89.047 2.78401C88.6843 2.78401 88.3217 2.80534 87.959 2.84801C87.5963 2.86934 87.2123 2.90134 86.807 2.94401L87.191 3.55201ZM94.0492 21.728C94.0492 21.536 94.0599 21.3013 94.0812 21.024C94.1239 20.7253 94.1879 20.3413 94.2732 19.872C94.3586 19.3813 94.4652 18.7947 94.5932 18.112C94.7426 17.4293 94.9239 16.608 95.1372 15.648C95.1799 15.4347 95.2759 15.0933 95.4252 14.624C95.5746 14.1547 95.7666 13.664 96.0012 13.152C96.2572 12.6187 96.5559 12.1067 96.8972 11.616C97.2599 11.1253 97.6866 10.7627 98.1772 10.528C98.5399 10.6133 99.0199 10.8373 99.6172 11.2C100.215 11.5413 100.727 12.0213 101.153 12.64C100.663 13.1947 100.247 13.7493 99.9052 14.304C99.5852 14.8587 99.2866 15.4347 99.0092 16.032C98.7532 16.6293 98.5079 17.248 98.2732 17.888C98.0599 18.528 97.8146 19.2 97.5372 19.904C97.3026 20.5013 97.0892 21.12 96.8972 21.76C96.7052 22.3787 96.5986 22.9227 96.5772 23.392C96.5772 23.776 96.5666 24.0427 96.5452 24.192C96.5452 24.3627 96.4919 24.448 96.3852 24.448C96.2999 24.448 96.1292 24.3947 95.8732 24.288C95.6172 24.1813 95.3506 24.0213 95.0732 23.808C94.8172 23.5733 94.5826 23.2853 94.3692 22.944C94.1559 22.6027 94.0492 22.1973 94.0492 21.728ZM100.161 7.84001C100.161 7.71201 100.193 7.52001 100.257 7.26401C100.151 7.15734 100.055 6.99734 99.9692 6.78401C99.9052 6.57067 99.8732 6.37867 99.8732 6.20801C99.8732 6.01601 99.8946 5.76001 99.9372 5.44001C100.001 5.09868 100.076 4.73601 100.161 4.35201C100.247 3.96801 100.353 3.57334 100.481 3.16801C100.609 2.74134 100.737 2.35734 100.865 2.01601C101.121 2.01601 101.431 2.09067 101.793 2.24001C102.177 2.36801 102.561 2.54934 102.945 2.78401C103.329 2.99734 103.681 3.24267 104.001 3.52001C104.321 3.77601 104.567 4.02134 104.737 4.25601C104.503 4.49067 104.193 4.82134 103.809 5.24801C103.425 5.65334 103.052 6.09068 102.689 6.56001C102.327 7.00801 101.996 7.43467 101.697 7.84001C101.399 8.24534 101.207 8.53334 101.121 8.70401C100.865 8.66134 100.641 8.55468 100.449 8.38401C100.257 8.19201 100.161 8.01067 100.161 7.84001ZM99.2437 34.464C98.9451 34.3787 98.7744 34.0587 98.7317 33.504C98.6464 33.2267 98.5824 32.896 98.5397 32.512C98.5184 32.128 98.5077 31.6907 98.5077 31.2C98.5077 30.752 98.5824 30.1333 98.7317 29.344C98.8811 28.576 99.0837 27.7013 99.3397 26.72C99.6171 25.7387 99.9477 24.6827 100.332 23.552C100.716 22.4 101.142 21.2373 101.612 20.064C102.188 18.592 102.689 17.3227 103.116 16.256C103.542 15.168 103.894 14.2293 104.172 13.44C104.47 12.6507 104.705 12 104.876 11.488C105.068 10.976 105.217 10.5387 105.324 10.176C105.409 9.92001 105.537 9.61068 105.708 9.24801C105.878 8.88534 106.07 8.52267 106.284 8.16001C106.518 7.77601 106.753 7.42401 106.988 7.10401C107.222 6.76267 107.436 6.50668 107.628 6.33601C108.374 6.44267 109.078 6.63467 109.74 6.91201C110.401 7.18934 110.806 7.45601 110.956 7.71201C110.657 7.98934 110.316 8.42668 109.932 9.02401C109.548 9.60001 109.174 10.24 108.812 10.944C108.449 11.6267 108.118 12.3307 107.82 13.056C107.521 13.7813 107.297 14.4213 107.148 14.976C107.361 14.6133 107.638 14.2187 107.98 13.792C108.321 13.3653 108.844 12.7787 109.548 12.032C110.337 11.2213 111.073 10.6027 111.756 10.176C112.46 9.72801 113.068 9.50401 113.58 9.50401C114.39 9.50401 115.052 9.72801 115.564 10.176C116.097 10.624 116.364 11.2 116.364 11.904C116.364 13.44 116.108 14.9653 115.596 16.48C115.084 17.9733 114.348 19.328 113.388 20.544C113.025 21.0133 112.598 21.4613 112.108 21.888C111.617 22.3147 111.105 22.6987 110.572 23.04C110.038 23.36 109.516 23.616 109.004 23.808C108.492 24 108.033 24.096 107.628 24.096C107.244 24.096 106.902 24.0213 106.604 23.872C106.326 23.7013 106.134 23.4987 106.028 23.264C106.86 22.7733 107.67 22.0907 108.46 21.216C109.249 20.3413 109.974 19.3387 110.636 18.208C111.318 17.056 111.905 15.8187 112.396 14.496C112.908 13.1733 113.292 11.8293 113.548 10.464C112.737 10.8907 112.001 11.36 111.34 11.872C110.7 12.3627 110.06 13.0133 109.42 13.824C108.652 14.7627 108.044 15.52 107.596 16.096C107.148 16.672 106.774 17.1627 106.476 17.568C106.198 17.9733 105.964 18.3573 105.772 18.72C105.601 19.0613 105.409 19.488 105.196 20C104.897 20.6827 104.545 21.5893 104.14 22.72C103.756 23.8293 103.35 25.0773 102.924 26.464C102.518 27.8507 102.102 29.3227 101.676 30.88C101.27 32.4587 100.876 34.0267 100.492 35.584C100.257 35.5413 100.054 35.3707 99.8837 35.072C99.7131 34.88 99.5851 34.7413 99.4997 34.656C99.4357 34.5707 99.3504 34.5067 99.2437 34.464Z" fill="black"/>
</svg>
