<svg width="118" height="120" viewBox="0 0 118 120" fill="none" xmlns="http://www.w3.org/2000/svg">
<g clip-path="url(#clip0_350_226)">
<path d="M47.5459 81.476L44.2521 92.9921L36.0858 109.965C35.1742 111.86 33.7012 113.411 31.854 114.382C27.8069 116.511 22.7066 115.324 19.9669 111.78C18.5179 109.905 18.4603 107.798 19.3792 105.741L28.0324 86.3481L32.9288 70.0557C32.6936 69.5019 32.2762 68.8569 31.8756 68.3773L12.2493 68.4589C10.6732 68.4661 9.55282 69.7225 9.55282 71.2929V118.458C9.55282 119.235 8.89789 119.985 8.1422 119.985H1.41539C0.659698 119.988 0.0071681 119.235 0.0071681 118.46L-2.89223e-05 71.5135C-0.100787 64.9702 4.89635 58.9712 11.5248 58.94L30.8704 58.8441L33.7204 42.2017C34.253 39.0871 34.7088 36.1643 35.8028 33.2295C36.6376 31.0404 37.7124 29.0911 39.3101 27.3527C44.4896 21.711 53.9896 22.8906 60.5173 26.3169C67.2322 30.2875 69.3241 36.3321 70.0702 43.8729L85.2823 51.9004C87.8612 53.2599 89.2431 55.986 88.6889 58.8417L106.278 58.9184C112.684 58.9472 117.959 64.5602 117.964 71.0364L118 118.472C118 119.321 117.398 119.993 116.597 119.993L109.817 120C109.222 120 108.457 119.405 108.457 118.664L108.423 70.8374C108.423 69.1758 106.672 68.4373 105.273 68.4397L60.323 68.4661L69.8231 78.9056C72.1717 81.488 72.9346 84.8903 72.5292 88.3718L68.65 112.785C67.8895 117.569 63.257 120.623 58.7181 119.885C54.1888 119.149 50.6742 114.924 51.4179 110.15L54.2176 92.1529C54.7501 88.7218 53.1452 85.5736 50.4847 83.6267L47.5411 81.4736L47.5459 81.476ZM58.1495 49.0471C58.483 50.5888 59.896 51.8404 61.3282 52.4279L80.5155 60.2971C82.4731 61.1003 84.7785 60.5081 85.6589 58.5804C86.2947 57.1873 85.527 55.3123 84.066 54.545L68.3765 46.3137C67.6016 45.9061 67.2322 45.2803 67.153 44.4028C66.9107 41.7102 66.5269 39.1302 65.5912 36.6438C64.0079 32.4335 60.9084 29.2901 56.7005 27.7627C50.204 25.401 42.9686 25.4945 39.5836 31.9851C37.9187 35.0445 37.3429 38.3726 36.748 41.8468L33.8332 58.9088H59.1667L59.7545 54.9598C57.5762 53.7898 55.7553 52.0179 55.2611 49.5938L54.4407 45.5656C54.2847 44.796 54.8869 44.0335 55.5346 43.8921C56.2159 43.741 57.094 44.1726 57.2547 44.9159L58.1471 49.0495L58.1495 49.0471ZM69.0194 58.7722L62.5661 56.0844L62.1127 58.8729L69.017 58.7722H69.0194ZM111.386 117.07L115.078 117.043L115.044 71.0676C115.042 66.0971 110.978 61.8508 106.031 61.8436L86.8728 61.8077C84.956 63.4956 82.3507 64.0471 80.0117 63.1552L76.4636 61.8005L11.9974 61.8292C7.01947 61.8292 2.94595 66.1211 2.94595 71.0292L2.92676 117.051H6.62843L6.61883 71.5183C6.61883 68.6579 8.61481 65.5409 11.7983 65.5409L105.981 65.5265C108.898 65.5265 111.362 68.1568 111.362 71.0436L111.386 117.072V117.07ZM65.8048 112.265L69.6504 87.6956C70.1062 84.7848 68.9762 82.0658 66.9827 80.0781L57.972 70.3411L57.5474 68.4397L35.6636 68.4565C37.139 70.0509 38.516 71.221 40.1258 72.3983L51.8833 81.0084C55.5922 83.725 57.8472 87.8826 57.0988 92.6349L54.3255 110.234C53.8217 113.437 55.9041 116.374 58.982 116.95C62.0599 117.525 65.2818 115.593 65.8048 112.26V112.265ZM33.3846 108.812L41.4572 92.1026L45.0294 79.5914C41.6755 77.2081 38.4825 74.8799 35.3374 72.2856L30.6449 87.3551L22.0541 106.959C21.5479 108.117 21.5958 109.217 22.4571 110.234C23.9085 111.941 26.154 112.778 28.5434 112.437C30.3402 112.181 32.3818 110.891 33.3846 108.815V108.812Z" fill="#000736"/>
<path d="M55.6282 0.201437C62.0911 -0.992616 67.7816 3.24172 68.9595 9.39421C70.1374 15.5515 65.9343 21.5577 59.7065 22.699C53.7042 23.7972 47.6611 19.7211 46.4928 13.6333C45.3245 7.55278 49.2132 1.3859 55.6282 0.201437ZM56.3599 3.0475C51.4683 3.85073 48.5271 8.41835 49.3356 12.9356C50.1656 17.5632 54.4791 20.5723 59.0324 19.8578C63.72 19.1217 66.8819 14.7459 66.1262 10.0608C65.4041 5.57947 61.1483 2.25866 56.3599 3.0475Z" fill="#000736"/>
</g>
<defs>
<clipPath id="clip0_350_226">
<rect width="118" height="120" fill="white"/>
</clipPath>
</defs>
</svg>
